<svg xmlns="http://www.w3.org/2000/svg" xmlns:xlink="http://www.w3.org/1999/xlink"><symbol viewBox="0 0 17.639 16.89" id="arrow-next" xmlns="http://www.w3.org/2000/svg"><path d="M0 7.62v1.65h14.279l-6.96 6.24 1.11 1.38 9.209-8.43v-.03L8.43 0 7.32 1.41l6.96 6.21H0z"/></symbol><symbol viewBox="0 0 70.999 53.999" id="arrow-next-thin" xmlns="http://www.w3.org/2000/svg"><path fill-rule="evenodd" clip-rule="evenodd" d="M70.999 26.954L43.938 0l-1.64 1.634L66.259 25.5H0v3h66.259L42.298 52.365l1.64 1.634 27.061-26.954-.046-.045z"/></symbol><symbol viewBox="0 0 17.639 16.889" id="arrow-prev" xmlns="http://www.w3.org/2000/svg"><path d="M17.639 9.27V7.62H3.39l6.959-6.209L9.27 0 0 8.43v.03l9.27 8.43 1.08-1.38-6.96-6.24h14.249z"/></symbol><symbol viewBox="0 0 35 18" id="burger" xmlns="http://www.w3.org/2000/svg"><path d="M0 1V0h35v1H0zM0 9V8h35v1H0zM8 18v-1h18v1H8z" fill-rule="evenodd" clip-rule="evenodd"/></symbol><symbol viewBox="0 0 72 51" id="camera" xmlns="http://www.w3.org/2000/svg"><path d="M2.814 5.5h66.369a2.321 2.321 0 0 1 2.315 2.328v40.345a2.322 2.322 0 0 1-2.315 2.328H2.814a2.321 2.321 0 0 1-2.315-2.328V7.828A2.321 2.321 0 0 1 2.814 5.5zM51.499.5h9v5h-9v-5z" fill-rule="evenodd" clip-rule="evenodd"/><path d="M35.999 16.362c6.393 0 11.576 5.21 11.576 11.638 0 6.427-5.183 11.638-11.576 11.638-6.394 0-11.576-5.21-11.576-11.638s5.182-11.638 11.576-11.638z" fill-rule="evenodd" clip-rule="evenodd"/><path d="M35.999 13.513c8.015 0 14.512 6.486 14.512 14.487s-6.497 14.487-14.512 14.487S21.487 36.001 21.487 28s6.497-14.487 14.512-14.487z" fill-rule="evenodd" clip-rule="evenodd"/></symbol><symbol viewBox="0 0 96.124 96.123" id="facebook" xmlns="http://www.w3.org/2000/svg"><path d="M72.089.02L59.624 0C45.62 0 36.57 9.285 36.57 23.656v10.907H24.037a1.96 1.96 0 0 0-1.96 1.961v15.803a1.96 1.96 0 0 0 1.96 1.96H36.57v39.876a1.96 1.96 0 0 0 1.96 1.96h16.352a1.96 1.96 0 0 0 1.96-1.96V54.287h14.654a1.96 1.96 0 0 0 1.96-1.96l.006-15.803a1.963 1.963 0 0 0-1.961-1.961H56.842v-9.246c0-4.444 1.059-6.7 6.848-6.7l8.397-.003a1.96 1.96 0 0 0 1.959-1.96V1.98A1.96 1.96 0 0 0 72.089.02z"/></symbol><symbol viewBox="0 0 51 95" id="phone" xmlns="http://www.w3.org/2000/svg"><path d="M16 6.5a2.5 2.5 0 1 1 0 5 2.5 2.5 0 0 1 0-5zM24 7.5h14a1.5 1.5 0 1 1 0 3H24a1.5 1.5 0 1 1 0-3z" fill-rule="evenodd" clip-rule="evenodd"/><path d="M4.071.5h42.857C48.901.5 50.5 2.442 50.5 4.838v85.323c0 2.396-1.599 4.338-3.572 4.338H4.071C2.098 94.499.5 92.557.5 90.161V4.838C.5 2.442 2.099.5 4.071.5z" fill-rule="evenodd" clip-rule="evenodd"/><path d="M4.501 16.306l42.007-1v69.358l-42.007 1V16.306z" fill-rule="evenodd" clip-rule="evenodd"/></symbol><symbol viewBox="0 0 612 612" id="twitter" xmlns="http://www.w3.org/2000/svg"><path d="M612 116.258a250.714 250.714 0 0 1-72.088 19.772c25.929-15.527 45.777-40.155 55.184-69.411-24.322 14.379-51.169 24.82-79.775 30.48-22.907-24.437-55.49-39.658-91.63-39.658-69.334 0-125.551 56.217-125.551 125.513 0 9.828 1.109 19.427 3.251 28.606-104.326-5.24-196.835-55.223-258.75-131.174-10.823 18.51-16.98 40.078-16.98 63.101 0 43.559 22.181 81.993 55.835 104.479a125.556 125.556 0 0 1-56.867-15.756v1.568c0 60.806 43.291 111.554 100.693 123.104-10.517 2.83-21.607 4.398-33.08 4.398-8.107 0-15.947-.803-23.634-2.333 15.985 49.907 62.336 86.199 117.253 87.194-42.947 33.654-97.099 53.655-155.916 53.655-10.134 0-20.116-.612-29.944-1.721 55.567 35.681 121.536 56.485 192.438 56.485 230.948 0 357.188-191.291 357.188-357.188l-.421-16.253c24.666-17.593 46.005-39.697 62.794-64.861z"/></symbol><symbol viewBox="0 34.679 548.357 487" id="vk" xmlns="http://www.w3.org/2000/svg"><path d="M545.45 400.298c-.664-1.432-1.282-2.618-1.857-3.569-9.515-17.136-27.695-38.167-54.532-63.103l-.567-.57-.283-.28-.287-.286h-.288c-12.181-11.611-19.894-19.419-23.123-23.416-5.91-7.613-7.234-15.32-4.004-23.13 2.282-5.899 10.854-18.36 25.695-37.397 7.808-10.089 13.99-18.175 18.557-24.267 32.931-43.78 47.208-71.756 42.828-83.939l-1.701-2.847c-1.144-1.714-4.093-3.282-8.846-4.712-4.765-1.427-10.854-1.663-18.278-.712l-82.225.568c-1.332-.472-3.233-.428-5.712.144l-3.713.859-1.431.715-1.136.859c-.952.568-1.999 1.567-3.143 2.995-1.137 1.423-2.088 3.093-2.848 4.996-8.952 23.031-19.13 44.444-30.553 64.238-7.043 11.803-13.512 22.032-19.418 30.693-5.899 8.658-10.849 15.037-14.843 19.126-4 4.093-7.609 7.372-10.852 9.849-3.237 2.478-5.708 3.525-7.419 3.142-1.715-.383-3.33-.763-4.859-1.143-2.663-1.714-4.805-4.045-6.42-6.995-1.622-2.95-2.714-6.663-3.285-11.136-.567-4.476-.903-8.326-1-11.563-.089-3.233-.048-7.806.146-13.706.198-5.903.287-9.897.287-11.991 0-7.234.141-15.085.424-23.555.288-8.47.521-15.181.716-20.125.194-4.949.284-10.185.284-15.705s-.336-9.849-1-12.991a44.442 44.442 0 0 0-2.99-9.137c-1.335-2.95-3.289-5.232-5.853-6.852-2.569-1.618-5.764-2.902-9.564-3.856-10.089-2.283-22.936-3.518-38.547-3.71-35.4-.38-58.147 1.906-68.235 6.855-3.997 2.091-7.614 4.948-10.849 8.562-3.427 4.189-3.905 6.475-1.431 6.851 11.422 1.711 19.508 5.804 24.267 12.275l1.715 3.429c1.334 2.474 2.666 6.854 3.999 13.134 1.331 6.28 2.19 13.227 2.568 20.837.95 13.897.95 25.793 0 35.689-.953 9.9-1.853 17.607-2.712 23.127s-2.144 9.993-3.855 13.418c-1.715 3.426-2.855 5.52-3.428 6.28-.571.76-1.047 1.239-1.425 1.427a21.387 21.387 0 0 1-7.71 1.431c-2.667 0-5.901-1.334-9.707-4-3.805-2.666-7.754-6.328-11.847-10.992-4.094-4.665-8.709-11.184-13.851-19.558-5.137-8.374-10.467-18.271-15.987-29.691l-4.566-8.282c-2.855-5.328-6.755-13.086-11.704-23.267-4.952-10.185-9.329-20.037-13.134-29.554-1.521-3.997-3.807-7.04-6.852-9.134l-1.429-.859c-.95-.76-2.475-1.567-4.567-2.427a30.293 30.293 0 0 0-6.566-1.854l-78.229.568c-7.994 0-13.418 1.811-16.273 5.428l-1.144 1.711c-.57.953-.858 2.475-.858 4.57 0 2.094.57 4.664 1.714 7.707 11.42 26.84 23.839 52.725 37.257 77.659s25.078 45.019 34.973 60.238c9.897 15.229 19.985 29.602 30.265 43.111 10.278 13.516 17.083 22.176 20.412 25.98 3.333 3.813 5.95 6.662 7.854 8.565l7.139 6.851c4.568 4.569 11.276 10.041 20.128 16.416 8.853 6.379 18.653 12.66 29.407 18.851 10.756 6.181 23.27 11.226 37.546 15.126 14.275 3.904 28.169 5.473 41.685 4.717h32.834c6.658-.576 11.704-2.67 15.133-6.283l1.136-1.432c.764-1.137 1.479-2.9 2.139-5.275.668-2.379 1-5 1-7.852-.194-8.184.429-15.559 1.853-22.124 1.423-6.563 3.045-11.513 4.858-14.847 1.813-3.33 3.859-6.139 6.137-8.418 2.281-2.282 3.908-3.666 4.861-4.142.948-.479 1.705-.804 2.276-.999 4.568-1.521 9.944-.048 16.136 4.43 6.188 4.473 11.99 9.996 17.418 16.56 5.426 6.569 11.943 13.94 19.556 22.124 7.616 8.186 14.276 14.271 19.984 18.273l5.708 3.426c3.813 2.287 8.762 4.381 14.854 6.283 6.081 1.902 11.409 2.379 15.983 1.428l73.087-1.141c7.229 0 12.854-1.197 16.845-3.572 3.998-2.379 6.373-5 7.139-7.851.764-2.854.805-6.092.146-9.712-.682-3.61-1.348-6.135-2.013-7.562z"/></symbol></svg>