<?xml version="1.0" encoding="iso-8859-1"?>
<!-- Generator: Adobe Illustrator 16.2.0, SVG Export Plug-In . SVG Version: 6.00 Build 0)  -->
<!DOCTYPE svg PUBLIC "-//W3C//DTD SVG 1.1//EN" "http://www.w3.org/Graphics/SVG/1.1/DTD/svg11.dtd">
<svg version="1.1" id="&#x421;&#x43B;&#x43E;&#x439;_1"
	 xmlns="http://www.w3.org/2000/svg" xmlns:xlink="http://www.w3.org/1999/xlink" x="0px" y="0px" width="72px" height="51px"
	 viewBox="0 0 72 51" style="enable-background:new 0 0 72 51;" xml:space="preserve">
<path style="fill-rule:evenodd;clip-rule:evenodd;stroke-miterlimit:10;" d="M2.814,5.5h66.369
	c1.279,0,2.315,1.042,2.315,2.328v40.345c0,1.286-1.037,2.328-2.315,2.328H2.814c-1.279,0-2.315-1.042-2.315-2.328V7.828
	C0.499,6.542,1.535,5.5,2.814,5.5z"/>
<path style="fill-rule:evenodd;clip-rule:evenodd;stroke-miterlimit:10;" d="M51.499,0.5h9v5h-9V0.5z"/>
<path style="fill-rule:evenodd;clip-rule:evenodd;stroke-miterlimit:10;" d="M35.999,16.362
	c6.393,0,11.576,5.21,11.576,11.638c0,6.427-5.183,11.638-11.576,11.638c-6.394,0-11.576-5.21-11.576-11.638
	C24.423,21.572,29.605,16.362,35.999,16.362z"/>
<path style="fill-rule:evenodd;clip-rule:evenodd;stroke-miterlimit:10;" d="M35.999,13.513
	c8.015,0,14.512,6.486,14.512,14.487s-6.497,14.487-14.512,14.487c-8.015,0-14.512-6.486-14.512-14.487S27.984,13.513,35.999,13.513
	z"/>
</svg>
