<?xml version="1.0" encoding="iso-8859-1"?>
<!-- Generator: Adobe Illustrator 16.2.0, SVG Export Plug-In . SVG Version: 6.00 Build 0)  -->
<!DOCTYPE svg PUBLIC "-//W3C//DTD SVG 1.1//EN" "http://www.w3.org/Graphics/SVG/1.1/DTD/svg11.dtd">
<svg version="1.1" id="&#x421;&#x43B;&#x43E;&#x439;_1"
	 xmlns="http://www.w3.org/2000/svg" xmlns:xlink="http://www.w3.org/1999/xlink" x="0px" y="0px" width="51px" height="95px"
	 viewBox="0 0 51 95" style="enable-background:new 0 0 51 95;" xml:space="preserve">
<path style="fill-rule:evenodd;clip-rule:evenodd;stroke-miterlimit:10;" d="M16,6.5
	c1.38,0,2.5,1.119,2.5,2.5s-1.12,2.5-2.5,2.5c-1.381,0-2.5-1.119-2.5-2.5S14.619,6.5,16,6.5z"/>
<path style="fill-rule:evenodd;clip-rule:evenodd;stroke-miterlimit:10;" d="M24,7.5h14
	c0.828,0,1.5,0.671,1.5,1.5s-0.672,1.5-1.5,1.5H24c-0.829,0-1.5-0.671-1.5-1.5S23.171,7.5,24,7.5z"/>
<path style="fill-rule:evenodd;clip-rule:evenodd;stroke-miterlimit:10;" d="M4.071,0.5h42.857
	c1.973,0,3.572,1.942,3.572,4.338v85.323c0,2.396-1.599,4.338-3.572,4.338H4.071c-1.973,0-3.571-1.942-3.571-4.338V4.838
	C0.5,2.442,2.099,0.5,4.071,0.5z"/>
<path style="fill-rule:evenodd;clip-rule:evenodd;stroke-miterlimit:10;" d="M4.501,16.306l42.007-1
	v69.358l-42.007,1V16.306z"/>
</svg>
